<?xml version="1.0" encoding="UTF-8"?>
<svg width="612px" height="613px" viewBox="0 0 612 613" version="1.1" xmlns="http://www.w3.org/2000/svg" xmlns:xlink="http://www.w3.org/1999/xlink">
    <!-- Generator: Sketch 42 (36781) - http://www.bohemiancoding.com/sketch -->
    <title>  </title>
    <desc>Created with Sketch.</desc>
    <defs>
        <rect id="path-1" x="162" y="0" width="956" height="809"></rect>
        <mask id="mask-2" maskContentUnits="userSpaceOnUse" maskUnits="objectBoundingBox" x="0" y="0" width="956" height="809" fill="white">
            <use xlink:href="#path-1"></use>
        </mask>
    </defs>
    <g id="Proto---Lumen-Spot" stroke="none" stroke-width="1" fill="none" fill-rule="evenodd">
        <g id="Artboard" transform="translate(-326.000000, -84.000000)">
            <use id="Rectangle-2" stroke="#979797" mask="url(#mask-2)" stroke-width="2" fill="#000000" xlink:href="#path-1"></use>
            <g id="lens2filled" transform="translate(326.000000, 84.000000)">
                <g id="Layer_1">
                    <g id="iPad-Pro-Landscape">
                        <g id="lens">
                            <g id="XMLID_1_">
                                <g id="Group" fill-rule="nonzero">
                                    <path d="M611.82,296.49 C612.059,303.5 612.059,310.51 611.82,317.51 L580.03,317.51 C579.86,321.99 579.58,326.47 579.19,330.93 L610.719,334.92 C610.079,341.9 609.209,348.85 608.089,355.77 L576.549,351.791 C575.82,356.211 574.98,360.621 574.029,365.001 L604.819,372.911 C603.308,379.751 601.569,386.541 599.598,393.27 L568.808,385.361 C567.529,389.651 566.138,393.921 564.649,398.151 L594.209,409.861 C591.859,416.461 589.279,422.97 586.48,429.401 L556.919,417.691 C555.109,421.791 553.199,425.85 551.19,429.861 L579.049,445.18 C575.889,451.441 572.509,457.58 568.929,463.6 L541.07,448.28 C538.759,452.12 536.36,455.91 533.87,459.639 L559.59,478.329 C555.67,484.139 551.55,489.808 547.24,495.329 L521.519,476.639 C518.749,480.16 515.889,483.619 512.95,486.999 L536.12,508.769 C531.51,514.04 526.71,519.15 521.74,524.089 L498.57,502.319 C495.38,505.468 492.11,508.539 488.769,511.529 L509.03,536.039 C503.79,540.679 498.389,545.149 492.84,549.429 L472.58,524.929 C469.019,527.65 465.39,530.289 461.7,532.839 L478.73,559.69 C472.95,563.639 467.04,567.4 461,570.95 L443.96,544.1 C440.09,546.35 436.16,548.51 432.18,550.58 L445.72,579.35 C439.481,582.55 433.14,585.54 426.71,588.3 L413.17,559.53 C409.04,561.28 404.88,562.929 400.67,564.48 L410.49,594.719 C403.91,597.119 397.24,599.28 390.51,601.219 L380.691,570.969 C376.38,572.19 372.031,573.309 367.67,574.32 L373.62,605.559 C366.79,607.099 359.91,608.419 352.99,609.49 L347.03,578.25 C342.599,578.93 338.15,579.49 333.69,579.94 L335.69,611.679 C328.71,612.36 321.719,612.799 314.719,612.999 L312.719,581.259 C308.24,581.369 303.759,581.369 299.279,581.259 L297.279,612.999 C290.279,612.799 283.279,612.359 276.309,611.679 L278.309,579.94 C273.849,579.49 269.399,578.929 264.969,578.25 L259.009,609.49 C252.089,608.42 245.209,607.099 238.379,605.559 L244.329,574.32 C239.959,573.309 235.619,572.19 231.309,570.969 L221.489,601.219 C214.749,599.28 208.089,597.119 201.509,594.719 L211.329,564.48 C207.119,562.929 202.949,561.28 198.829,559.53 L185.289,588.3 C178.849,585.54 172.519,582.55 166.279,579.35 L179.819,550.58 C175.839,548.51 171.909,546.35 168.039,544.1 L151,570.95 C144.96,567.4 139.05,563.639 133.26,559.69 L150.3,532.839 C146.61,530.289 142.98,527.65 139.42,524.929 L119.16,549.429 C113.61,545.15 108.21,540.69 102.97,536.039 L123.23,511.529 C119.89,508.539 116.62,505.468 113.43,502.319 L90.26,524.089 C85.29,519.15 80.49,514.039 75.88,508.769 L99.05,486.999 C96.11,483.619 93.25,480.159 90.48,476.639 L64.76,495.329 C60.45,489.808 56.33,484.139 52.41,478.329 L78.13,459.639 C75.64,455.91 73.23,452.119 70.93,448.28 L43.07,463.599 C39.48,457.579 36.11,451.429 32.95,445.179 L60.8,429.86 C58.8,425.849 56.89,421.79 55.08,417.69 L25.52,429.4 C22.72,422.969 20.14,416.46 17.79,409.86 L47.34,398.15 C45.86,393.92 44.47,389.65 43.19,385.36 L12.4,393.259 C10.43,386.539 8.68,379.749 7.18,372.909 L37.96,364.999 C37.02,360.619 36.18,356.209 35.45,351.789 L3.91,355.768 C2.79,348.848 1.91,341.899 1.27,334.918 L32.81,330.928 C32.42,326.468 32.14,321.989 31.97,317.508 L0.18,317.508 C-0.06,310.498 -0.06,303.498 0.18,296.488 L31.97,296.488 C32.14,292.008 32.42,287.528 32.81,283.068 L1.28,279.078 C1.91,272.098 2.79,265.148 3.91,258.228 L35.45,262.218 C36.18,257.788 37.02,253.388 37.97,248.998 L7.18,241.088 C8.68,234.248 10.43,227.458 12.4,220.738 L43.19,228.648 C44.47,224.348 45.86,220.078 47.35,215.848 L17.79,204.148 C20.14,197.538 22.72,191.028 25.52,184.598 L55.08,196.308 C56.89,192.208 58.8,188.148 60.8,184.138 L32.95,168.818 C36.11,162.568 39.49,156.418 43.07,150.398 L70.93,165.718 C73.23,161.878 75.64,158.088 78.13,154.368 L52.41,135.668 C56.33,129.868 60.45,124.188 64.76,118.668 L90.48,137.358 C93.25,133.838 96.11,130.378 99.05,126.998 L75.88,105.228 C80.49,99.958 85.29,94.848 90.26,89.908 L113.43,111.678 C116.62,108.528 119.89,105.458 123.23,102.468 L102.97,77.968 C108.21,73.318 113.61,68.848 119.16,64.568 L139.42,89.068 C142.98,86.348 146.61,83.708 150.3,81.168 L133.26,54.308 C139.05,50.358 144.96,46.598 151,43.048 L168.04,69.898 C171.91,67.648 175.84,65.488 179.82,63.418 L166.28,34.648 C172.51,31.448 178.85,28.458 185.29,25.698 L198.83,54.478 C202.95,52.718 207.12,51.068 211.33,49.518 L201.51,19.278 C208.09,16.888 214.75,14.718 221.49,12.778 L231.31,43.028 C235.62,41.808 239.96,40.688 244.33,39.678 L238.38,8.448 C245.21,6.898 252.09,5.578 259.01,4.508 L264.97,35.748 C269.4,35.068 273.85,34.508 278.31,34.058 L276.31,2.318 C283.28,1.638 290.28,1.198 297.28,0.998 L299.28,32.738 C303.76,32.628 308.24,32.628 312.72,32.738 L314.72,0.998 C321.72,1.198 328.71,1.638 335.691,2.318 L333.691,34.058 C338.151,34.508 342.6,35.068 347.031,35.748 L352.991,4.508 C359.911,5.578 366.791,6.898 373.621,8.448 L367.671,39.678 C372.031,40.688 376.381,41.808 380.692,43.028 L390.511,12.778 C397.241,14.718 403.911,16.888 410.491,19.278 L400.671,49.518 C404.881,51.068 409.041,52.718 413.171,54.478 L426.711,25.698 C433.141,28.458 439.482,31.448 445.721,34.648 L432.181,63.418 C436.161,65.488 440.091,67.648 443.961,69.898 L461,43.05 C467.04,46.6 472.95,50.36 478.73,54.31 L461.7,81.17 C465.389,83.71 469.019,86.35 472.58,89.07 L492.84,64.57 C498.39,68.85 503.79,73.32 509.03,77.97 L488.769,102.47 C492.11,105.46 495.379,108.53 498.57,111.68 L521.74,89.91 C526.71,94.85 531.51,99.96 536.12,105.23 L512.95,127 C515.889,130.38 518.75,133.84 521.519,137.36 L547.24,118.67 C551.55,124.19 555.67,129.87 559.59,135.67 L533.87,154.37 C536.36,158.09 538.76,161.88 541.07,165.72 L568.929,150.4 C572.509,156.42 575.889,162.57 579.049,168.82 L551.19,184.14 C553.2,188.15 555.11,192.21 556.919,196.31 L586.48,184.6 C589.28,191.03 591.86,197.54 594.209,204.15 L564.649,215.85 C566.138,220.08 567.529,224.35 568.808,228.65 L599.598,220.74 C601.569,227.46 603.308,234.25 604.819,241.09 L574.03,249 C574.98,253.39 575.82,257.79 576.55,262.22 L608.09,258.23 C609.21,265.15 610.08,272.1 610.72,279.08 L579.19,283.07 C579.58,287.54 579.86,292.01 580.03,296.49 L611.82,296.49 Z M566,307 C566,163.41 449.59,47 306,47 C162.41,47 46,163.41 46,307 C46,450.59 162.41,567 306,567 C449.59,567 566,450.59 566,307 Z" id="Shape" fill="#FFFFFF"></path>
                                    <path d="M416.97,330 C431.87,397.08 413.23,467.23 367,518 L366,517.45 C284.64,540.83 197.07,515.36 141,452 L141,451.98 C250.4,487.43 368.96,434.84 416,330 L416.97,330 Z" id="Shape" fill="#FFFFFF"></path>
                                    <path d="M524.96,314.93 C521.76,398.85 471,473.58 394.2,507.47 C460.42,414.29 446.69,285.94 362,209 C430.24,215.54 491.05,255.07 524.96,314.93 Z" id="Shape" fill="#FFFFFF"></path>
                                    <path d="M381,101 C460.85,129.84 516.9,201.84 525,286 C457.32,192.95 330.51,165.7 230.6,222.64 C258.16,160.12 314.17,114.79 381,101 Z" id="Shape" fill="#FFFFFF"></path>
                                    <path d="M338,208 C371.28,233.15 396.34,267.61 410,307 C396.34,346.39 371.28,380.85 338,406 C296.46,405.19 256.08,391.96 222,368 C210,328.23 210,285.77 222,246 C256.08,222.04 296.46,208.81 338,208 Z" id="Shape" stroke="#FFFFFF" stroke-width="6"></path>
                                    <path d="M354,92.26 L354,93 C244.77,128.52 179.69,240.27 202.57,352.61 C151.56,307.26 125.73,239.91 133.3,172 L133.11,171.85 C185.3,104.77 271.24,73.79 354,92.26 Z" id="Shape" fill="#FFFFFF"></path>
                                    <path d="M318,419 C258.9,453.59 186.51,457.47 124,429.38 L124,429 C76.1,358.93 73.27,267.85 116.72,195 L117,195 C117.05,310.11 203.71,406.68 318,419 Z" id="Shape" fill="#FFFFFF"></path>
                                </g>
                                <g id="Group" transform="translate(0.000000, 1.000000)">
                                    <path d="M410,306 C396.34,266.61 371.28,232.15 338,207" id="Shape" stroke="#000000" stroke-width="0.7087" stroke-linecap="round" stroke-linejoin="round"></path>
                                    <path d="M222,367 C256.08,390.96 296.46,404.19 338,405" id="Shape" stroke="#000000" stroke-width="0.7087" stroke-linecap="round" stroke-linejoin="round"></path>
                                    <path d="M222,245 C210,284.77 210,327.23 222,367" id="Shape" stroke="#000000" stroke-width="0.7087" stroke-linecap="round" stroke-linejoin="round"></path>
                                    <path d="M338,207 C296.46,207.81 256.08,221.04 222,245" id="Shape" stroke="#000000" stroke-width="0.7087" stroke-linecap="round" stroke-linejoin="round"></path>
                                    <path d="M338,405 C371.28,379.85 396.34,345.39 410,306" id="Shape" stroke="#000000" stroke-width="0.7087" stroke-linecap="round" stroke-linejoin="round"></path>
                                    <path d="M525,314 C524.99,313.98 524.97,313.95 524.96,313.93 C491.05,254.07 430.24,214.54 362,208" id="Shape" stroke="#000000" stroke-width="0.7087" stroke-linecap="round" stroke-linejoin="round"></path>
                                    <path d="M393.1,508 C393.47,507.49 393.83,506.98 394.201,506.47 C460.42,413.29 446.69,284.94 362,208" id="Shape" stroke="#000000" stroke-width="0.7087" stroke-linecap="round" stroke-linejoin="round"></path>
                                    <path d="M393,507 C393.4,506.83 393.8,506.65 394.2,506.47 C471,472.58 521.76,397.85 524.96,313.93 C524.981,313.62 524.99,313.31 525,313" id="Shape" stroke="#000000" stroke-width="0.7087" stroke-linecap="round" stroke-linejoin="round"></path>
                                    <path d="M525,285 C516.9,200.84 460.85,128.84 381,100" id="Shape" stroke="#000000" stroke-width="0.7087" stroke-linecap="round" stroke-linejoin="round"></path>
                                    <path d="M525,285 C457.32,191.95 330.51,164.7 230.6,221.64 C230.4,221.75 230.2,221.87 230,221.98" id="Shape" stroke="#000000" stroke-width="0.7087" stroke-linecap="round" stroke-linejoin="round"></path>
                                    <path d="M381,100 C314.17,113.79 258.16,159.12 230.6,221.64 C230.4,222.09 230.2,222.54 230,223" id="Shape" stroke="#000000" stroke-width="0.7087" stroke-linecap="round" stroke-linejoin="round"></path>
                                    <path d="M133.3,171 C125.73,238.91 151.56,306.26 202.57,351.61 C202.71,351.74 202.86,351.87 203,352" id="Shape" stroke="#000000" stroke-width="0.7087" stroke-linecap="round" stroke-linejoin="round"></path>
                                    <path d="M354,92 C244.77,127.52 179.69,239.27 202.57,351.61 C202.66,352.07 202.75,352.54 202.85,353" id="Shape" stroke="#000000" stroke-width="0.7087" stroke-linecap="round" stroke-linejoin="round"></path>
                                    <path d="M354,91.26 C271.24,72.79 185.3,103.77 133.11,170.85 C133.08,170.9 133.04,170.95 133,171" id="Shape" stroke="#000000" stroke-width="0.7087" stroke-linecap="round" stroke-linejoin="round"></path>
                                    <path d="M116.72,194 C73.27,266.85 76.1,357.93 124,428" id="Shape" stroke="#000000" stroke-width="0.7087" stroke-linecap="round" stroke-linejoin="round"></path>
                                    <path d="M117,194 C117.05,309.11 203.71,405.68 318,418" id="Shape" stroke="#000000" stroke-width="0.7087" stroke-linecap="round" stroke-linejoin="round"></path>
                                    <path d="M124,428.38 C186.51,456.47 258.9,452.59 318,418" id="Shape" stroke="#000000" stroke-width="0.7087" stroke-linecap="round" stroke-linejoin="round"></path>
                                    <path d="M141,450.98 C250.4,486.43 368.96,433.84 416,329" id="Shape" stroke="#000000" stroke-width="0.7087" stroke-linecap="round" stroke-linejoin="round"></path>
                                    <path d="M141,451 C197.07,514.36 284.64,539.83 366,516.45" id="Shape" stroke="#000000" stroke-width="0.7087" stroke-linecap="round" stroke-linejoin="round"></path>
                                    <path d="M367,517 C413.23,466.23 431.87,396.08 416.97,329" id="Shape" stroke="#000000" stroke-width="0.7087" stroke-linecap="round" stroke-linejoin="round"></path>
                                    <path d="M90.48,136.36 C93.25,132.84 96.11,129.38 99.05,126 L75.88,104.23 C80.49,98.96 85.29,93.85 90.26,88.91 L113.43,110.68 C116.62,107.53 119.89,104.46 123.23,101.47 L102.97,76.97 C108.21,72.32 113.61,67.85 119.16,63.57 L139.42,88.07 C142.98,85.35 146.61,82.71 150.3,80.17 L133.26,53.31 C139.05,49.36 144.96,45.6 151,42.05 L168.04,68.9 C171.91,66.65 175.84,64.49 179.82,62.42 L166.28,33.65 C172.51,30.45 178.85,27.46 185.29,24.7 L198.83,53.48 C202.95,51.72 207.12,50.07 211.33,48.52 L201.51,18.28 C208.09,15.89 214.75,13.72 221.49,11.78 L231.31,42.03 C235.62,40.81 239.96,39.69 244.33,38.68 L238.38,7.45 C245.21,5.9 252.09,4.58 259.01,3.51 L264.97,34.75 C269.4,34.07 273.85,33.51 278.31,33.06 L276.31,1.32 C283.28,0.64 290.28,0.2 297.28,0 L299.28,31.74 C303.76,31.63 308.24,31.63 312.72,31.74 L314.72,0 C321.72,0.2 328.71,0.64 335.691,1.32 L333.691,33.06 C338.151,33.51 342.6,34.07 347.031,34.75 L352.991,3.51 C359.911,4.58 366.791,5.9 373.621,7.45 L367.671,38.68 C372.031,39.69 376.381,40.81 380.692,42.03 L390.511,11.78 C397.241,13.72 403.911,15.89 410.491,18.28 L400.671,48.52 C404.881,50.07 409.041,51.72 413.171,53.48 L426.711,24.7 C433.141,27.46 439.482,30.45 445.721,33.65 L432.181,62.42 C436.161,64.49 440.091,66.65 443.961,68.9 L461,42.05 C467.04,45.6 472.95,49.36 478.73,53.31 L461.7,80.17 C465.389,82.71 469.019,85.35 472.58,88.07 L492.84,63.57 C498.39,67.85 503.79,72.32 509.03,76.97 L488.769,101.47 C492.11,104.46 495.379,107.53 498.57,110.68 L521.74,88.91 C526.71,93.85 531.51,98.96 536.12,104.23 L512.95,126 C515.889,129.38 518.75,132.84 521.519,136.36 L547.24,117.67 C551.55,123.19 555.67,128.87 559.59,134.67 L533.87,153.37 C536.36,157.09 538.76,160.88 541.07,164.72 L568.929,149.4 C572.509,155.42 575.889,161.57 579.049,167.82 L551.19,183.14 C553.2,187.15 555.11,191.21 556.919,195.31 L586.48,183.6 C589.28,190.03 591.86,196.54 594.209,203.15 L564.649,214.85 C566.138,219.08 567.529,223.35 568.808,227.65 L599.598,219.74 C601.569,226.46 603.308,233.25 604.819,240.09 L574.03,248 C574.98,252.39 575.82,256.79 576.55,261.22 L608.09,257.23 C609.21,264.15 610.08,271.1 610.72,278.08 L579.19,282.07 C579.58,286.54 579.86,291.01 580.03,295.49 L611.82,295.49 C612.059,302.5 612.059,309.51 611.82,316.51 L580.03,316.51 C579.86,320.99 579.58,325.47 579.19,329.93 L610.719,333.92 C610.079,340.9 609.209,347.85 608.089,354.77 L576.549,350.791 C575.82,355.211 574.98,359.621 574.029,364.001 L604.819,371.911 C603.308,378.751 601.569,385.541 599.598,392.27 L568.808,384.361 C567.529,388.651 566.138,392.921 564.649,397.151 L594.209,408.861 C591.859,415.461 589.279,421.97 586.48,428.401 L556.919,416.691 C555.109,420.791 553.199,424.85 551.19,428.861 L579.049,444.18 C575.889,450.441 572.509,456.58 568.929,462.6 L541.07,447.28 C538.759,451.12 536.36,454.91 533.87,458.639 L559.59,477.329 C555.67,483.139 551.55,488.808 547.24,494.329 L521.519,475.639 C518.749,479.16 515.889,482.619 512.95,485.999 L536.12,507.769 C531.51,513.04 526.71,518.15 521.74,523.089 L498.57,501.319 C495.38,504.468 492.11,507.539 488.769,510.529 L509.03,535.039 C503.79,539.679 498.389,544.149 492.84,548.429 L472.58,523.929 C469.019,526.65 465.39,529.289 461.7,531.839 L478.73,558.69 C472.95,562.639 467.04,566.4 461,569.95 L443.96,543.1 C440.09,545.35 436.16,547.51 432.18,549.58 L445.72,578.35 C439.481,581.55 433.14,584.54 426.71,587.3 L413.17,558.53 C409.04,560.28 404.88,561.929 400.67,563.48 L410.49,593.719 C403.91,596.119 397.24,598.28 390.51,600.219 L380.691,569.969 C376.38,571.19 372.031,572.309 367.67,573.32 L373.62,604.559 C366.79,606.099 359.91,607.419 352.99,608.49 L347.03,577.25 C342.599,577.93 338.15,578.49 333.69,578.94 L335.69,610.679 C328.71,611.36 321.719,611.799 314.719,611.999 L312.719,580.259 C308.24,580.369 303.759,580.369 299.279,580.259 L297.279,611.999 C290.279,611.799 283.279,611.359 276.309,610.679 L278.309,578.94 C273.849,578.49 269.399,577.929 264.969,577.25 L259.009,608.49 C252.089,607.42 245.209,606.099 238.379,604.559 L244.329,573.32 C239.959,572.309 235.619,571.19 231.309,569.969 L221.489,600.219 C214.749,598.28 208.089,596.119 201.509,593.719 L211.329,563.48 C207.119,561.929 202.949,560.28 198.829,558.53 L185.289,587.3 C178.849,584.54 172.519,581.55 166.279,578.35 L179.819,549.58 C175.839,547.51 171.909,545.35 168.039,543.1 L151,569.95 C144.96,566.4 139.05,562.639 133.26,558.69 L150.3,531.839 C146.61,529.289 142.98,526.65 139.42,523.929 L119.16,548.429 C113.61,544.15 108.21,539.69 102.97,535.039 L123.23,510.529 C119.89,507.539 116.62,504.468 113.43,501.319 L90.26,523.089 C85.29,518.15 80.49,513.039 75.88,507.769 L99.05,485.999 C96.11,482.619 93.25,479.159 90.48,475.639 L64.76,494.329 C60.45,488.808 56.33,483.139 52.41,477.329 L78.13,458.639 C75.64,454.91 73.23,451.119 70.93,447.28 L43.07,462.599 C39.48,456.579 36.11,450.429 32.95,444.179 L60.8,428.86 C58.8,424.849 56.89,420.79 55.08,416.69 L25.52,428.4 C22.72,421.969 20.14,415.46 17.79,408.86 L47.34,397.15 C45.86,392.92 44.47,388.65 43.19,384.36 L12.4,392.259 C10.43,385.539 8.68,378.749 7.18,371.909 L37.96,363.999 C37.02,359.619 36.18,355.209 35.45,350.789 L3.91,354.768 C2.79,347.848 1.91,340.899 1.27,333.918 L32.81,329.928 C32.42,325.468 32.14,320.989 31.97,316.508 L0.18,316.508 C-0.06,309.498 -0.06,302.498 0.18,295.488 L31.97,295.488 C32.14,291.008 32.42,286.528 32.81,282.068 L1.28,278.078 C1.91,271.098 2.79,264.148 3.91,257.228 L35.45,261.218 C36.18,256.788 37.02,252.388 37.97,247.998 L7.18,240.088 C8.68,233.248 10.43,226.458 12.4,219.738 L43.19,227.648 C44.47,223.348 45.86,219.078 47.35,214.848 L17.79,203.148 C20.14,196.538 22.72,190.028 25.52,183.598 L55.08,195.308 C56.89,191.208 58.8,187.148 60.8,183.138 L32.95,167.818 C36.11,161.568 39.49,155.418 43.07,149.398 L70.93,164.718 C73.23,160.878 75.64,157.088 78.13,153.368 L52.41,134.668 C56.33,128.868 60.45,123.188 64.76,117.668 L90.48,136.36 Z" id="Shape" stroke="#000000" stroke-width="0.7087" stroke-linecap="round" stroke-linejoin="round"></path>
                                    <path d="M306,46 C449.59,46 566,162.41 566,306 C566,449.59 449.59,566 306,566 C162.41,566 46,449.59 46,306 C46,162.41 162.41,46 306,46 Z" id="Shape" stroke="#979797"></path>
                                </g>
                            </g>
                        </g>
                    </g>
                </g>
            </g>
        </g>
    </g>
</svg>